<mxfile host="app.diagrams.net" modified="2022-12-08T19:10:38.254Z" agent="5.0 (Windows NT 10.0; Win64; x64) AppleWebKit/537.36 (KHTML, like Gecko) Chrome/108.0.0.0 Safari/537.36" version="20.6.1" etag="1A2BED0ZdtRb6Vvj06b4" type="github">
  <diagram id="UD1_f_KbmdlqJ_WZmVHX" name="페이지-1">
    <mxGraphModel dx="1305" dy="914" grid="1" gridSize="10" guides="1" tooltips="1" connect="1" arrows="1" fold="1" page="1" pageScale="1" pageWidth="850" pageHeight="1100" math="0" shadow="0">
      <root>
        <mxCell id="0" />
        <mxCell id="1" parent="0" />
        <mxCell id="W-ZXjsUTRAynonz4FvOQ-1" value="이용자" style="shape=umlActor;verticalLabelPosition=bottom;verticalAlign=top;html=1;" vertex="1" parent="1">
          <mxGeometry x="30" y="370" width="30" height="60" as="geometry" />
        </mxCell>
        <mxCell id="W-ZXjsUTRAynonz4FvOQ-2" value="게시판 서비스" style="shape=umlFrame;whiteSpace=wrap;html=1;width=100;height=30;" vertex="1" parent="1">
          <mxGeometry x="150" y="170" width="560" height="580" as="geometry" />
        </mxCell>
        <mxCell id="W-ZXjsUTRAynonz4FvOQ-21" style="rounded=0;orthogonalLoop=1;jettySize=auto;html=1;exitX=0;exitY=0.5;exitDx=0;exitDy=0;entryX=1;entryY=0.3333333333333333;entryDx=0;entryDy=0;entryPerimeter=0;endArrow=none;endFill=0;" edge="1" parent="1" source="W-ZXjsUTRAynonz4FvOQ-3" target="W-ZXjsUTRAynonz4FvOQ-1">
          <mxGeometry relative="1" as="geometry" />
        </mxCell>
        <mxCell id="W-ZXjsUTRAynonz4FvOQ-3" value="회원가입" style="rounded=1;whiteSpace=wrap;html=1;arcSize=40;fontColor=#000000;fillColor=#ffffc0;strokeColor=#ff0000;" vertex="1" parent="1">
          <mxGeometry x="180" y="340" width="120" height="40" as="geometry" />
        </mxCell>
        <mxCell id="W-ZXjsUTRAynonz4FvOQ-24" style="edgeStyle=none;rounded=0;orthogonalLoop=1;jettySize=auto;html=1;exitX=0;exitY=0.5;exitDx=0;exitDy=0;entryX=1;entryY=0.3333333333333333;entryDx=0;entryDy=0;entryPerimeter=0;endArrow=none;endFill=0;" edge="1" parent="1" source="W-ZXjsUTRAynonz4FvOQ-5" target="W-ZXjsUTRAynonz4FvOQ-1">
          <mxGeometry relative="1" as="geometry" />
        </mxCell>
        <mxCell id="W-ZXjsUTRAynonz4FvOQ-27" style="edgeStyle=none;rounded=0;orthogonalLoop=1;jettySize=auto;html=1;exitX=1;exitY=0.5;exitDx=0;exitDy=0;endArrow=classic;endFill=1;dashed=1;" edge="1" parent="1" source="W-ZXjsUTRAynonz4FvOQ-5" target="W-ZXjsUTRAynonz4FvOQ-9">
          <mxGeometry relative="1" as="geometry" />
        </mxCell>
        <mxCell id="W-ZXjsUTRAynonz4FvOQ-30" value="&amp;lt;&amp;lt;include&amp;gt;&amp;gt;" style="edgeLabel;html=1;align=center;verticalAlign=middle;resizable=0;points=[];" vertex="1" connectable="0" parent="W-ZXjsUTRAynonz4FvOQ-27">
          <mxGeometry x="-0.1644" y="-1" relative="1" as="geometry">
            <mxPoint x="2" y="-1" as="offset" />
          </mxGeometry>
        </mxCell>
        <mxCell id="W-ZXjsUTRAynonz4FvOQ-5" value="회원로그인" style="rounded=1;whiteSpace=wrap;html=1;arcSize=40;fontColor=#000000;fillColor=#ffffc0;strokeColor=#ff0000;" vertex="1" parent="1">
          <mxGeometry x="310" y="210" width="120" height="40" as="geometry" />
        </mxCell>
        <mxCell id="W-ZXjsUTRAynonz4FvOQ-22" style="edgeStyle=none;rounded=0;orthogonalLoop=1;jettySize=auto;html=1;exitX=0;exitY=0.5;exitDx=0;exitDy=0;endArrow=none;endFill=0;" edge="1" parent="1" source="W-ZXjsUTRAynonz4FvOQ-6">
          <mxGeometry relative="1" as="geometry">
            <mxPoint x="60" y="390" as="targetPoint" />
          </mxGeometry>
        </mxCell>
        <mxCell id="W-ZXjsUTRAynonz4FvOQ-32" style="edgeStyle=none;rounded=0;orthogonalLoop=1;jettySize=auto;html=1;exitX=1;exitY=0.5;exitDx=0;exitDy=0;entryX=0.5;entryY=1;entryDx=0;entryDy=0;dashed=1;endArrow=classic;endFill=1;" edge="1" parent="1" source="W-ZXjsUTRAynonz4FvOQ-6" target="W-ZXjsUTRAynonz4FvOQ-5">
          <mxGeometry relative="1" as="geometry" />
        </mxCell>
        <mxCell id="W-ZXjsUTRAynonz4FvOQ-35" value="&amp;lt;&amp;lt;include&amp;gt;&amp;gt;" style="edgeLabel;html=1;align=center;verticalAlign=middle;resizable=0;points=[];" vertex="1" connectable="0" parent="W-ZXjsUTRAynonz4FvOQ-32">
          <mxGeometry x="-0.4971" y="1" relative="1" as="geometry">
            <mxPoint as="offset" />
          </mxGeometry>
        </mxCell>
        <mxCell id="W-ZXjsUTRAynonz4FvOQ-48" style="edgeStyle=none;rounded=0;orthogonalLoop=1;jettySize=auto;html=1;exitX=1;exitY=0.5;exitDx=0;exitDy=0;endArrow=none;endFill=0;" edge="1" parent="1" source="W-ZXjsUTRAynonz4FvOQ-6">
          <mxGeometry relative="1" as="geometry">
            <mxPoint x="759.9999999999998" y="390" as="targetPoint" />
          </mxGeometry>
        </mxCell>
        <mxCell id="W-ZXjsUTRAynonz4FvOQ-6" value="게시판 보기" style="rounded=1;whiteSpace=wrap;html=1;arcSize=40;fontColor=#000000;fillColor=#ffffc0;strokeColor=#ff0000;" vertex="1" parent="1">
          <mxGeometry x="180" y="420" width="120" height="40" as="geometry" />
        </mxCell>
        <mxCell id="W-ZXjsUTRAynonz4FvOQ-23" style="edgeStyle=none;rounded=0;orthogonalLoop=1;jettySize=auto;html=1;exitX=0;exitY=0.5;exitDx=0;exitDy=0;endArrow=none;endFill=0;" edge="1" parent="1" source="W-ZXjsUTRAynonz4FvOQ-7">
          <mxGeometry relative="1" as="geometry">
            <mxPoint x="60" y="390" as="targetPoint" />
          </mxGeometry>
        </mxCell>
        <mxCell id="W-ZXjsUTRAynonz4FvOQ-33" style="edgeStyle=none;rounded=0;orthogonalLoop=1;jettySize=auto;html=1;exitX=1;exitY=0.5;exitDx=0;exitDy=0;entryX=0.5;entryY=1;entryDx=0;entryDy=0;dashed=1;endArrow=classic;endFill=1;" edge="1" parent="1" source="W-ZXjsUTRAynonz4FvOQ-7" target="W-ZXjsUTRAynonz4FvOQ-5">
          <mxGeometry relative="1" as="geometry" />
        </mxCell>
        <mxCell id="W-ZXjsUTRAynonz4FvOQ-36" value="&amp;lt;&amp;lt;include&amp;gt;&amp;gt;" style="edgeLabel;html=1;align=center;verticalAlign=middle;resizable=0;points=[];" vertex="1" connectable="0" parent="W-ZXjsUTRAynonz4FvOQ-33">
          <mxGeometry x="-0.1002" relative="1" as="geometry">
            <mxPoint x="-11" y="72" as="offset" />
          </mxGeometry>
        </mxCell>
        <mxCell id="W-ZXjsUTRAynonz4FvOQ-49" style="edgeStyle=none;rounded=0;orthogonalLoop=1;jettySize=auto;html=1;exitX=1;exitY=0.5;exitDx=0;exitDy=0;entryX=0;entryY=0.5;entryDx=0;entryDy=0;endArrow=none;endFill=0;" edge="1" parent="1" source="W-ZXjsUTRAynonz4FvOQ-7" target="W-ZXjsUTRAynonz4FvOQ-45">
          <mxGeometry relative="1" as="geometry">
            <Array as="points">
              <mxPoint x="590" y="530" />
            </Array>
          </mxGeometry>
        </mxCell>
        <mxCell id="W-ZXjsUTRAynonz4FvOQ-7" value="게시글 보기" style="rounded=1;whiteSpace=wrap;html=1;arcSize=40;fontColor=#000000;fillColor=#ffffc0;strokeColor=#ff0000;" vertex="1" parent="1">
          <mxGeometry x="180" y="590" width="120" height="40" as="geometry" />
        </mxCell>
        <mxCell id="W-ZXjsUTRAynonz4FvOQ-47" style="edgeStyle=none;rounded=0;orthogonalLoop=1;jettySize=auto;html=1;exitX=1;exitY=0.5;exitDx=0;exitDy=0;entryX=0;entryY=0.5;entryDx=0;entryDy=0;endArrow=none;endFill=0;" edge="1" parent="1" source="W-ZXjsUTRAynonz4FvOQ-9" target="W-ZXjsUTRAynonz4FvOQ-45">
          <mxGeometry relative="1" as="geometry" />
        </mxCell>
        <mxCell id="W-ZXjsUTRAynonz4FvOQ-9" value="인증" style="rounded=1;whiteSpace=wrap;html=1;arcSize=40;fontColor=#000000;fillColor=#ffffc0;strokeColor=#ff0000;" vertex="1" parent="1">
          <mxGeometry x="560" y="210" width="120" height="40" as="geometry" />
        </mxCell>
        <mxCell id="W-ZXjsUTRAynonz4FvOQ-28" style="edgeStyle=none;rounded=0;orthogonalLoop=1;jettySize=auto;html=1;exitX=0;exitY=0.5;exitDx=0;exitDy=0;endArrow=classic;endFill=1;dashed=1;" edge="1" parent="1" source="W-ZXjsUTRAynonz4FvOQ-10">
          <mxGeometry relative="1" as="geometry">
            <mxPoint x="430" y="230" as="targetPoint" />
          </mxGeometry>
        </mxCell>
        <mxCell id="W-ZXjsUTRAynonz4FvOQ-31" value="&amp;lt;&amp;lt;extend&amp;gt;&amp;gt;" style="edgeLabel;html=1;align=center;verticalAlign=middle;resizable=0;points=[];" vertex="1" connectable="0" parent="W-ZXjsUTRAynonz4FvOQ-28">
          <mxGeometry relative="1" as="geometry">
            <mxPoint x="5" y="5" as="offset" />
          </mxGeometry>
        </mxCell>
        <mxCell id="W-ZXjsUTRAynonz4FvOQ-10" value="로그인 실패" style="rounded=1;whiteSpace=wrap;html=1;arcSize=40;fontColor=#000000;fillColor=#ffffc0;strokeColor=#ff0000;" vertex="1" parent="1">
          <mxGeometry x="560" y="300" width="120" height="40" as="geometry" />
        </mxCell>
        <mxCell id="W-ZXjsUTRAynonz4FvOQ-37" style="edgeStyle=none;rounded=0;orthogonalLoop=1;jettySize=auto;html=1;exitX=0;exitY=0.5;exitDx=0;exitDy=0;entryX=1;entryY=0.5;entryDx=0;entryDy=0;dashed=1;endArrow=classic;endFill=1;" edge="1" parent="1" source="W-ZXjsUTRAynonz4FvOQ-11" target="W-ZXjsUTRAynonz4FvOQ-6">
          <mxGeometry relative="1" as="geometry" />
        </mxCell>
        <mxCell id="W-ZXjsUTRAynonz4FvOQ-39" value="&amp;lt;&amp;lt;extend&amp;gt;&amp;gt;" style="edgeLabel;html=1;align=center;verticalAlign=middle;resizable=0;points=[];" vertex="1" connectable="0" parent="W-ZXjsUTRAynonz4FvOQ-37">
          <mxGeometry relative="1" as="geometry">
            <mxPoint x="15" as="offset" />
          </mxGeometry>
        </mxCell>
        <mxCell id="W-ZXjsUTRAynonz4FvOQ-11" value="게시판 정렬" style="rounded=1;whiteSpace=wrap;html=1;arcSize=40;fontColor=#000000;fillColor=#ffffc0;strokeColor=#ff0000;" vertex="1" parent="1">
          <mxGeometry x="430" y="350" width="120" height="40" as="geometry" />
        </mxCell>
        <mxCell id="W-ZXjsUTRAynonz4FvOQ-38" style="edgeStyle=none;rounded=0;orthogonalLoop=1;jettySize=auto;html=1;exitX=0;exitY=0.5;exitDx=0;exitDy=0;dashed=1;endArrow=classic;endFill=1;" edge="1" parent="1" source="W-ZXjsUTRAynonz4FvOQ-12">
          <mxGeometry relative="1" as="geometry">
            <mxPoint x="300" y="440" as="targetPoint" />
          </mxGeometry>
        </mxCell>
        <mxCell id="W-ZXjsUTRAynonz4FvOQ-40" value="&amp;lt;&amp;lt;extend&amp;gt;&amp;gt;" style="edgeLabel;html=1;align=center;verticalAlign=middle;resizable=0;points=[];" vertex="1" connectable="0" parent="W-ZXjsUTRAynonz4FvOQ-38">
          <mxGeometry relative="1" as="geometry">
            <mxPoint x="15" as="offset" />
          </mxGeometry>
        </mxCell>
        <mxCell id="W-ZXjsUTRAynonz4FvOQ-52" style="edgeStyle=none;rounded=0;orthogonalLoop=1;jettySize=auto;html=1;exitX=1;exitY=0.5;exitDx=0;exitDy=0;entryX=0;entryY=0.5;entryDx=0;entryDy=0;endArrow=none;endFill=0;" edge="1" parent="1" source="W-ZXjsUTRAynonz4FvOQ-12" target="W-ZXjsUTRAynonz4FvOQ-45">
          <mxGeometry relative="1" as="geometry" />
        </mxCell>
        <mxCell id="W-ZXjsUTRAynonz4FvOQ-12" value="게시판 검색" style="rounded=1;whiteSpace=wrap;html=1;arcSize=40;fontColor=#000000;fillColor=#ffffc0;strokeColor=#ff0000;" vertex="1" parent="1">
          <mxGeometry x="470" y="460" width="120" height="40" as="geometry" />
        </mxCell>
        <mxCell id="W-ZXjsUTRAynonz4FvOQ-41" style="edgeStyle=none;rounded=0;orthogonalLoop=1;jettySize=auto;html=1;exitX=0;exitY=0.5;exitDx=0;exitDy=0;entryX=1;entryY=0.5;entryDx=0;entryDy=0;dashed=1;endArrow=classic;endFill=1;" edge="1" parent="1" source="W-ZXjsUTRAynonz4FvOQ-13" target="W-ZXjsUTRAynonz4FvOQ-7">
          <mxGeometry relative="1" as="geometry" />
        </mxCell>
        <mxCell id="W-ZXjsUTRAynonz4FvOQ-43" value="&amp;lt;&amp;lt;extend&amp;gt;&amp;gt;" style="edgeLabel;html=1;align=center;verticalAlign=middle;resizable=0;points=[];" vertex="1" connectable="0" parent="W-ZXjsUTRAynonz4FvOQ-41">
          <mxGeometry relative="1" as="geometry">
            <mxPoint x="15" y="-3" as="offset" />
          </mxGeometry>
        </mxCell>
        <mxCell id="W-ZXjsUTRAynonz4FvOQ-50" style="edgeStyle=none;rounded=0;orthogonalLoop=1;jettySize=auto;html=1;exitX=1;exitY=0.5;exitDx=0;exitDy=0;endArrow=none;endFill=0;" edge="1" parent="1" source="W-ZXjsUTRAynonz4FvOQ-13">
          <mxGeometry relative="1" as="geometry">
            <mxPoint x="759.9999999999998" y="390" as="targetPoint" />
          </mxGeometry>
        </mxCell>
        <mxCell id="W-ZXjsUTRAynonz4FvOQ-13" value="게시글 쓰기, 수정, 삭제" style="rounded=1;whiteSpace=wrap;html=1;arcSize=40;fontColor=#000000;fillColor=#ffffc0;strokeColor=#ff0000;" vertex="1" parent="1">
          <mxGeometry x="460" y="590" width="140" height="40" as="geometry" />
        </mxCell>
        <mxCell id="W-ZXjsUTRAynonz4FvOQ-42" style="edgeStyle=none;rounded=0;orthogonalLoop=1;jettySize=auto;html=1;exitX=0;exitY=0.5;exitDx=0;exitDy=0;entryX=1;entryY=0.5;entryDx=0;entryDy=0;dashed=1;endArrow=classic;endFill=1;" edge="1" parent="1" source="W-ZXjsUTRAynonz4FvOQ-15" target="W-ZXjsUTRAynonz4FvOQ-7">
          <mxGeometry relative="1" as="geometry" />
        </mxCell>
        <mxCell id="W-ZXjsUTRAynonz4FvOQ-44" value="&amp;lt;&amp;lt;extend&amp;gt;&amp;gt;" style="edgeLabel;html=1;align=center;verticalAlign=middle;resizable=0;points=[];" vertex="1" connectable="0" parent="W-ZXjsUTRAynonz4FvOQ-42">
          <mxGeometry relative="1" as="geometry">
            <mxPoint x="15" y="2" as="offset" />
          </mxGeometry>
        </mxCell>
        <mxCell id="W-ZXjsUTRAynonz4FvOQ-51" style="edgeStyle=none;rounded=0;orthogonalLoop=1;jettySize=auto;html=1;exitX=1;exitY=0.5;exitDx=0;exitDy=0;endArrow=none;endFill=0;" edge="1" parent="1" source="W-ZXjsUTRAynonz4FvOQ-15">
          <mxGeometry relative="1" as="geometry">
            <mxPoint x="759.9999999999998" y="390" as="targetPoint" />
          </mxGeometry>
        </mxCell>
        <mxCell id="W-ZXjsUTRAynonz4FvOQ-15" value="댓글&amp;nbsp; 쓰기, 수정, 삭제" style="rounded=1;whiteSpace=wrap;html=1;arcSize=40;fontColor=#000000;fillColor=#ffffc0;strokeColor=#ff0000;" vertex="1" parent="1">
          <mxGeometry x="460" y="670" width="140" height="40" as="geometry" />
        </mxCell>
        <mxCell id="W-ZXjsUTRAynonz4FvOQ-45" value="DB" style="html=1;dropTarget=0;" vertex="1" parent="1">
          <mxGeometry x="760" y="340" width="110" height="100" as="geometry" />
        </mxCell>
      </root>
    </mxGraphModel>
  </diagram>
</mxfile>
